<?xml version="1.0" encoding="UTF-8"?>
<svg width="640px" height="640px" viewBox="0 0 640 640" version="1.1" xmlns="http://www.w3.org/2000/svg" xmlns:xlink="http://www.w3.org/1999/xlink">
    <title>Artboard</title>
    <g id="Artboard" stroke="none" stroke-width="1" fill="none" fill-rule="evenodd">
        <g id="Group-2" transform="translate(62, 35)" fill-rule="nonzero">
            <g id="Group">
                <path d="M0,26.6296278 L0,405.631889 C0,405.631889 144.643726,388.675082 144.643726,531 L144.643726,172.32241 C144.643726,36.7854368 0,26.6296278 0,26.6296278" id="Path" fill="#231F1F"></path>
                <path d="M67.7474827,0 L67.7474827,333.483873 C67.7474827,333.483873 147.598284,349.004769 147.598284,491.316633 C147.598284,633.641551 148,226.547642 148,150.300752 C148.012959,14.7768327 67.7474827,0 67.7474827,0" id="Path" fill="#AAAAAA"></path>
            </g>
            <path d="M151,169.884971 L151,514.543875 C151,514.543875 221.225349,318.747563 516.43652,571 C516.43652,479.584907 517,249.025293 517,172.819959 C225.195918,-38.7991988 151,169.884971 151,169.884971" id="Path" fill="#3978AD"></path>
            <polygon id="Path" fill="#FFFFFF" points="181 428 245.981198 428 266.977726 282.340484 267.641597 282.340484 325.307203 428 351.315302 428 411.63639 282.340484 412.30026 282.340484 430.62829 428 496 428 457.964131 175 392.982933 175 338.975123 310.211254 287.974255 175 223.656928 175"></polygon>
        </g>
    </g>
</svg>